<svg width="65" height="45" viewBox="0 0 65 45" fill="none" xmlns="http://www.w3.org/2000/svg">
<rect x="0.5" y="0.5" width="64" height="44" rx="3.5" stroke="white"/>
<path d="M14.4031 15.6V22H10.3662V15.6246L4.80308 4.94154H9.22154L12.4585 12.2892L15.72 4.94154H19.9662L14.4031 15.6Z" fill="white"/>
<path d="M50.1319 7.41231V11.741H55.8642V14.5128H50.1319V21H46.2514V4.65231H56.9966L56.5955 7.41231H50.1319Z" fill="white"/>
<path d="M28.903 10.2338V18.26H40.4722V23.8036H28.903V32.3359H42.8583V38H20.9973V4.59385H42.8342L42.0389 10.2338H28.903Z" fill="white"/>
<path d="M19.8431 20.9415L17.8492 38H13.6523L12.4092 25.8031L11.0431 38H6.77231L4.92615 20.9415H8.70462L9.28308 34.5538L10.6985 22.9108H14.1692L15.4862 34.5538L16.3354 20.9415H19.8431Z" fill="white"/>
<path d="M58.1919 33.2113C58.1919 34.1549 58.0111 34.9373 57.6493 35.5585C57.2876 36.1797 56.7923 36.6672 56.1632 37.021C55.5341 37.3749 54.8146 37.6265 54.0047 37.7759C53.2027 37.9253 52.3574 38 51.4688 38H46.0432V21.6523H51.2211C52.3456 21.6523 53.3796 21.7781 54.3232 22.0297C55.2746 22.2814 56.0374 22.7138 56.6114 23.3272C57.1933 23.9327 57.4842 24.7662 57.4842 25.8277C57.4842 26.8027 57.1854 27.5812 56.5878 28.1631C55.9902 28.745 55.2904 29.1381 54.4883 29.3426C55.0702 29.4369 55.6442 29.6217 56.2104 29.8969C56.7844 30.1643 57.2562 30.5653 57.6258 31.1C58.0032 31.6347 58.1919 32.3385 58.1919 33.2113ZM53.5919 26.2169C53.5919 25.5721 53.3875 25.1082 52.9786 24.8251C52.5776 24.5342 51.9524 24.3887 51.1032 24.3887H49.9119V28.1749H51.2211C52.0546 28.1749 52.6562 28.0215 53.0258 27.7149C53.4032 27.4082 53.5919 26.9089 53.5919 26.2169ZM54.2052 33.0579C54.2052 32.193 53.9576 31.5954 53.4622 31.2651C52.9746 30.9349 52.322 30.7697 51.5042 30.7697H49.9119V35.181H51.3391C51.8423 35.181 52.3102 35.1299 52.7427 35.0277C53.183 34.9176 53.5369 34.7092 53.8042 34.4026C54.0716 34.0959 54.2052 33.6477 54.2052 33.0579Z" fill="white"/>
</svg>
